<svg width="32" height="32" viewBox="0 0 32 32" fill="none" xmlns="http://www.w3.org/2000/svg">
<path d="M7.16117 7.16116C5.11626 9.20607 3.84365 11.8968 3.56019 14.7748C3.27673 17.6528 3.99995 20.5401 5.60663 22.9446C7.2133 25.3492 9.60402 27.1223 12.3714 27.9618C15.1389 28.8012 18.1117 28.6552 20.7835 27.5485C23.4553 26.4418 25.6608 24.4429 27.024 21.8925C28.3873 19.342 28.824 16.3977 28.2598 13.5614C27.6956 10.725 26.1654 8.172 23.9299 6.33737C21.6944 4.50274 18.8919 3.5 16 3.5" stroke="#232323" stroke-linecap="round"/>
<path d="M16.0002 15.9999L9.3335 9.33325" stroke="#232323" stroke-linecap="round"/>
<path d="M16 3.33325V6.66659" stroke="#232323" stroke-linecap="round"/>
<path d="M28 16L25.3333 16" stroke="#232323" stroke-linecap="round"/>
<path d="M16 25.3333V27.9999" stroke="#232323" stroke-linecap="round"/>
<path d="M6.6665 16L3.99984 16" stroke="#232323" stroke-linecap="round"/>
</svg>
