<svg width="33" height="32" viewBox="0 0 33 32" fill="none" xmlns="http://www.w3.org/2000/svg">
<path d="M14.0248 8.83679C15.0736 6.22213 15.598 4.91479 16.4998 4.91479C17.4016 4.91479 17.926 6.22213 18.9748 8.83679L19.0236 8.95855C19.6161 10.4357 19.9124 11.1743 20.5162 11.6232C21.12 12.0721 21.9126 12.1431 23.4978 12.2851L23.7844 12.3107C26.3788 12.5431 27.676 12.6593 27.9536 13.4846C28.2312 14.3099 27.2678 15.1863 25.3411 16.9393L24.6981 17.5243C23.7227 18.4117 23.235 18.8553 23.0077 19.4368C22.9653 19.5453 22.9301 19.6564 22.9022 19.7695C22.7528 20.3757 22.8956 21.0194 23.1812 22.3067L23.2701 22.7074C23.795 25.0731 24.0575 26.256 23.5992 26.7663C23.428 26.9569 23.2055 27.0942 22.9582 27.1616C22.2966 27.3422 21.3573 26.5768 19.4787 25.046C18.2452 24.0408 17.6284 23.5382 16.9203 23.4252C16.6417 23.3807 16.3579 23.3807 16.0793 23.4252C15.3712 23.5382 14.7544 24.0408 13.5209 25.046C11.6423 26.5768 10.703 27.3422 10.0414 27.1616C9.79413 27.0942 9.57158 26.9569 9.40035 26.7663C8.94211 26.256 9.20456 25.0731 9.72946 22.7074L9.81836 22.3067C10.104 21.0194 10.2468 20.3757 10.0974 19.7695C10.0695 19.6564 10.0343 19.5453 9.99185 19.4368C9.76455 18.8553 9.27688 18.4117 8.30154 17.5243L7.6585 16.9393C5.73178 15.1863 4.76841 14.3099 5.04598 13.4846C5.32356 12.6593 6.62076 12.5431 9.21518 12.3107L9.50177 12.2851C11.087 12.1431 11.8796 12.0721 12.4834 11.6232C13.0872 11.1743 13.3835 10.4357 13.976 8.95855L14.0248 8.83679Z" stroke="#232323"/>
</svg>
