<svg width="50" height="50" viewBox="0 0 50 50" fill="none" xmlns="http://www.w3.org/2000/svg">
<g clip-path="url(#clip0_625_9090)">
<path d="M25.0146 50.0298C31.6962 50.0298 37.9759 47.4256 42.7081 42.6935C47.098 38.3036 49.6872 32.4702 49.9997 26.2649C50.0295 25.6548 49.5533 25.1191 48.9432 25.0893C48.3331 25.0595 47.7974 25.5357 47.7676 26.1458C47.4849 31.7857 45.1188 37.0982 41.1158 41.1012C36.8152 45.4018 31.0861 47.7827 24.9997 47.7827C18.9134 47.7827 13.1843 45.4167 8.88367 41.1012C-0.000257697 32.2173 -0.000257697 17.753 8.88367 8.86906C16.4581 1.29465 28.2438 0.029771 37.2021 5.72918L34.6872 8.80953L41.9045 8.08037L41.1753 0.863105L38.6307 3.9881C28.7646 -2.44047 15.6843 -1.0863 7.30629 7.29168C-2.45561 17.0536 -2.45561 32.9167 7.30629 42.6786C12.0533 47.4256 18.3331 50.0298 25.0146 50.0298Z" fill="#232323"/>
<path d="M36.815 19.8513C36.815 19.8364 36.815 19.8215 36.8001 19.8215C36.8001 19.7918 36.7853 19.7769 36.7853 19.7471C36.7853 19.7322 36.7704 19.7025 36.7704 19.6876C36.7704 19.6727 36.7555 19.6578 36.7555 19.643C36.7257 19.5686 36.696 19.509 36.6513 19.4495L31.9192 12.5001C31.7108 12.1876 31.3686 12.009 30.9966 12.009H19.0025C18.6305 12.009 18.2882 12.1876 18.0799 12.5001L13.3477 19.4346C13.3031 19.4942 13.2733 19.5686 13.2436 19.6281C13.2436 19.643 13.2287 19.6578 13.2287 19.6727C13.2138 19.6876 13.2138 19.7174 13.2138 19.7322C13.2138 19.762 13.1989 19.7769 13.1989 19.8067C13.1989 19.8215 13.1989 19.8364 13.1841 19.8364C13.1692 19.9108 13.1543 19.9852 13.1543 20.0596V36.8602C13.1543 37.4703 13.6602 37.9763 14.2704 37.9763H35.7138C36.3239 37.9763 36.8299 37.4703 36.8299 36.8602V20.0745C36.8299 19.9852 36.8299 19.9108 36.815 19.8513ZM19.5977 14.2412H30.4013L33.6007 18.9436H16.3835L19.5977 14.2412ZM34.5977 35.759H15.4013V21.1906H34.6126V35.759H34.5977Z" fill="#232323"/>
</g>
<defs>
<clipPath id="clip0_625_9090">
<rect width="50" height="50" fill="white"/>
</clipPath>
</defs>
</svg>
