<svg width="51" height="50" viewBox="0 0 51 50" fill="none" xmlns="http://www.w3.org/2000/svg">
<g clip-path="url(#clip0_625_9084)">
<path d="M48.3758 3.71576L46.7694 1.75964C45.0723 -0.298464 42.0188 -0.594205 39.9634 1.10024L20.6335 17.0139C20.364 16.9886 20.0922 16.9749 19.8183 16.9749C17.8272 16.9749 15.8828 17.6734 14.3435 18.9413C12.6505 20.3342 9.08209 24.3916 6.26916 28.5173C2.46391 34.0984 1.35157 37.7081 2.86913 39.5534C3.48926 40.306 4.49691 40.6874 5.86404 40.6874C11.4441 40.6874 22.6676 34.4179 25.302 32.2483C27.0788 30.7856 28.1793 28.7184 28.4012 26.4276L47.7178 10.5224C48.7156 9.70162 49.3336 8.54105 49.4576 7.25465C49.5817 5.96814 49.197 4.71069 48.3758 3.71576ZM26.3279 26.2252C26.1601 27.9629 25.3255 29.5307 23.9778 30.6403C21.2518 32.8851 10.5632 38.6042 5.86415 38.6042C5.83998 38.6042 5.81665 38.6037 5.79289 38.6034L21.0746 25.9063C21.5172 25.5387 21.5778 24.8819 21.2102 24.4394C20.8426 23.9969 20.1857 23.936 19.7432 24.3039L4.32513 37.1143C4.48711 35.8381 5.39621 33.4963 7.99069 29.6911C10.6145 25.8428 14.0783 21.8577 15.6679 20.5499C16.8353 19.5882 18.3093 19.0586 19.8184 19.0586C21.7809 19.0586 23.6203 19.9266 24.8658 21.4411C25.9764 22.7884 26.4956 24.4874 26.3279 26.2252ZM28.2641 23.8421C27.9843 22.4882 27.3783 21.2137 26.4741 20.1168C25.5693 19.0165 24.426 18.1755 23.1491 17.6415L25.8334 15.4317L30.8487 21.7139L28.2641 23.8421ZM47.3839 7.05453C47.3132 7.78633 46.9618 8.44657 46.3939 8.91367L32.4572 20.3894L27.4419 14.1075L41.2882 2.70843C42.4578 1.74422 44.1956 1.91319 45.1606 3.08365L46.7674 5.04018C47.2356 5.60719 47.4545 6.32263 47.3839 7.05453Z" fill="#232323"/>
<path d="M35.356 40.5922C32.3587 38.3391 27.4136 38.7785 20.6583 41.8981C11.6536 46.0563 7.2934 45.5257 5.22123 44.3485C3.2398 43.2227 3.00916 41.3116 2.99875 41.2148C2.94458 40.6454 2.44029 40.2252 1.87037 40.276C1.29733 40.3264 0.873663 40.8318 0.923978 41.405C0.934916 41.5281 1.22295 44.4397 4.13921 46.1296C7.76612 48.2315 13.6179 47.4442 21.5317 43.7895C27.4465 41.0582 31.7918 40.5266 34.0973 42.2526C36.7534 44.2409 36.1186 48.758 36.1121 48.8014C36.0257 49.3702 36.4166 49.9014 36.9854 49.988C37.0385 49.9961 37.0912 50 37.1434 50C37.6495 50 38.0935 49.6305 38.1719 49.1148C38.2078 48.8801 39.0047 43.3351 35.356 40.5922Z" fill="#232323"/>
</g>
<defs>
<clipPath id="clip0_625_9084">
<rect width="50" height="50" fill="white" transform="translate(0.200195)"/>
</clipPath>
</defs>
</svg>
