<svg width="51" height="50" viewBox="0 0 51 50" fill="none" xmlns="http://www.w3.org/2000/svg">
<path d="M49.4058 12.3828C49.4058 6.17188 44.3179 1.08398 38.1069 1.08398C33.2925 1.08398 29.1519 4.14062 27.5405 8.4082H10.3335V2.71484H8.29248V8.41797H2.39404V48.916H45.2358V21.123C47.7749 19.0527 49.4058 15.8984 49.4058 12.3828ZM38.1069 3.125C43.2925 3.125 47.4722 7.19727 47.3647 12.3828C47.3647 17.4707 43.1948 21.6406 38.1069 21.6406C33.019 21.6406 28.8491 17.4707 28.8491 12.3828C28.8491 7.29492 33.019 3.125 38.1069 3.125ZM26.9839 10.4492C26.8765 11.0742 26.8179 11.7285 26.8179 12.3828C26.8179 14.8926 27.6479 17.2168 29.0542 19.1016H4.32764V10.4492H26.9839ZM43.1948 46.875H4.32764V21.1328H30.9878V21.123C32.9312 22.7148 35.4214 23.6719 38.1069 23.6719C39.9331 23.6719 41.6616 23.2324 43.1948 22.4512V46.875Z" fill="#232323"/>
<path d="M43.3999 14.5215L39.1323 11.7676V4.0332H37.1987V12.8906L42.2866 16.25L43.3999 14.5215Z" fill="#232323"/>
<path d="M14.0933 29.2773H16.6421V40.2637H19.5913V26.7285H14.0933V29.2773Z" fill="#232323"/>
<path d="M27.9312 26.3184C26.0952 26.3184 24.6792 26.9336 23.7612 28.252C22.8433 29.4727 22.3354 31.2012 22.3354 33.3398C22.3354 35.4785 22.8433 37.1094 23.7612 38.4277C24.6792 39.7461 26.105 40.3613 27.9312 40.3613C29.8647 40.3613 31.1831 39.7461 32.1011 38.4277C33.019 37.207 33.5269 35.4785 33.5269 33.3398C33.5269 31.2012 33.019 29.5703 32.1011 28.252C31.1929 26.9336 29.7671 26.3184 27.9312 26.3184ZM30.0698 36.6016C29.562 37.4121 28.9468 37.8223 28.0386 37.8223C27.1206 37.8223 26.4077 37.4121 26.0073 36.6016C25.5972 35.791 25.3921 34.668 25.3921 33.3496C25.3921 32.0312 25.5972 30.9082 26.0073 30.0977C26.4175 29.2871 27.0229 28.877 28.0386 28.877C28.9565 28.877 29.6694 29.2871 30.0698 30.0977C30.48 30.9082 30.6851 32.0312 30.6851 33.3496C30.6851 34.668 30.48 35.791 30.0698 36.6016Z" fill="#232323"/>
</svg>
