<svg width="51" height="50" viewBox="0 0 51 50" fill="none" xmlns="http://www.w3.org/2000/svg">
<g clip-path="url(#clip0_625_9087)">
<path d="M50.3491 13.4797C49.982 12.4347 49.271 11.7972 48.1854 11.5733C48.0422 11.5427 47.9003 11.5036 47.7559 11.4779C46.7854 11.3078 46.4819 11.0055 46.2714 10.0266C46.25 9.91451 46.253 9.79908 46.2802 9.68822C46.3075 9.57736 46.3583 9.47368 46.4293 9.38424C46.6545 9.08445 46.864 8.77323 47.0571 8.45183C47.6298 7.39094 47.6274 6.34351 46.8821 5.37929C46.3429 4.65986 45.6975 4.02654 44.968 3.50102C44.0685 2.8733 43.1078 2.8892 42.1423 3.35908C41.795 3.5414 41.467 3.75827 41.1632 4.00638C41.0351 4.12199 40.8743 4.19512 40.703 4.21571C40.5316 4.23631 40.3581 4.20336 40.2062 4.1214C40.0739 4.05732 39.9373 4.00253 39.7974 3.95743C39.3263 3.80693 39.0632 3.50102 39.0362 2.99811C39.0044 2.68947 38.9429 2.3846 38.8527 2.08773C38.7102 1.50395 38.3784 0.983809 37.909 0.608568C37.4396 0.233327 36.8591 0.0241322 36.2582 0.0136713C35.623 0.000211403 34.9891 0.000211403 34.3503 0.0124477C33.7741 0.0295343 33.2177 0.226259 32.7589 0.575103C32.3 0.923948 31.9617 1.40746 31.7913 1.95802C31.6778 2.38384 31.5927 2.81674 31.5367 3.25385C31.5191 3.38349 31.4683 3.50638 31.3892 3.61058C31.31 3.71478 31.2053 3.79675 31.0851 3.84853C31.0085 3.87682 30.9337 3.90992 30.8612 3.94764C30.226 4.35756 29.6765 4.26579 29.0989 3.77144C28.263 3.05806 27.2876 2.83169 26.218 3.20735C25.4201 3.48878 23.5954 5.34503 23.3139 6.14406C23.0824 6.78093 23.107 7.48274 23.3825 8.10187C23.5049 8.3882 23.6272 8.68921 23.85 8.89968C24.5989 9.60938 24.3016 10.3362 23.9332 11.0777C23.8846 11.1616 23.8168 11.2328 23.7353 11.2854C23.6538 11.3379 23.561 11.3703 23.4645 11.38C23.1132 11.4558 22.7559 11.495 22.4059 11.5745C21.0254 11.8878 20.1895 12.9205 20.1834 14.3436C20.1834 14.9138 20.1834 15.4853 20.1834 16.0567C20.1741 16.6573 20.3652 17.2439 20.7264 17.7238C21.0876 18.2037 21.5985 18.5497 22.1782 18.7071C22.5564 18.8091 22.9418 18.8823 23.3311 18.9261C23.4776 18.9394 23.6176 18.9929 23.7355 19.0808C23.8534 19.1687 23.9447 19.2875 23.9993 19.4241C24.08 19.6028 24.1461 19.7912 24.2342 19.9613C24.4545 20.3945 24.375 20.7713 24.0788 21.1384C23.8161 21.4514 23.5948 21.7968 23.4204 22.1663C22.9884 23.1317 23.0961 24.0507 23.6958 24.8999C24.2155 25.6341 24.8551 26.2757 25.5878 26.7977C26.5558 27.4903 27.7099 27.4989 28.7048 26.8552C28.9655 26.6864 29.2323 26.5261 29.4746 26.3327C29.6092 26.2116 29.7796 26.1376 29.96 26.122C30.1404 26.1063 30.321 26.1498 30.4745 26.2459C30.5738 26.3027 30.6793 26.3479 30.789 26.3805C31.314 26.52 31.5539 26.8601 31.6016 27.401C31.6579 28.0201 31.7986 28.6246 32.1804 29.1446C32.7275 29.8886 33.4446 30.3034 34.3833 30.2998C34.9695 30.2998 35.5569 30.2998 36.1444 30.2998C37.5493 30.2998 38.6006 29.4432 38.9065 28.0727C38.9799 27.7375 39.0289 27.3985 39.0876 27.0608C39.1378 26.7781 39.2993 26.6276 39.5453 26.4808C40.309 26.0207 40.9393 26.077 41.6601 26.6656C42.9047 27.6824 44.4748 27.5221 45.5249 26.3682C45.892 25.9571 46.313 25.5876 46.6961 25.1862C47.0954 24.7723 47.3524 24.2418 47.4296 23.6719C47.5069 23.102 47.4004 22.5223 47.1256 22.017C46.9121 21.6328 46.6707 21.2648 46.4036 20.9157C46.3164 20.8166 46.2612 20.6935 46.2453 20.5625C46.2293 20.4314 46.2534 20.2987 46.3142 20.1816C46.3741 20.0643 46.422 19.9413 46.4574 19.8145C46.6116 19.2222 46.9739 18.9041 47.6005 18.8735C47.8764 18.8425 48.1486 18.7843 48.4131 18.6997C49.2967 18.4734 49.8975 17.924 50.2586 17.0931C50.3344 16.9157 50.3173 16.6563 50.5988 16.622V13.7832C50.3858 13.7905 50.392 13.6045 50.3491 13.4797ZM48.0569 15.8719C48.0667 16.2084 47.9248 16.3797 47.5882 16.4299C47.024 16.5143 46.466 16.6342 45.903 16.7175C45.2605 16.8129 44.8224 17.1372 44.6339 17.7698C44.4169 18.5026 44.1232 19.2105 43.7577 19.8818C43.4322 20.4752 43.4933 21.0259 43.9009 21.5655C44.2435 22.0194 44.5532 22.4991 44.886 22.9629C45.0476 23.188 45.0978 23.4034 44.886 23.6187C44.5067 24.0005 44.1256 24.3806 43.743 24.7592C43.6745 24.8298 43.5828 24.8732 43.4848 24.8815C43.3234 24.8613 43.1713 24.795 43.0467 24.6906C42.5804 24.3615 42.108 24.0421 41.6454 23.7117C41.1497 23.3532 40.6345 23.2884 40.0899 23.5808C39.3866 23.9556 38.6489 24.2621 37.8871 24.4961C37.3045 24.6772 36.9729 25.0761 36.8835 25.6891C36.8028 26.2532 36.6816 26.8112 36.5947 27.3741C36.5384 27.7338 36.383 27.9284 35.9828 27.9076C35.5447 27.8843 35.1029 27.8892 34.6623 27.9076C34.2891 27.9222 34.092 27.7852 34.0406 27.3961C33.9684 26.832 33.8473 26.274 33.753 25.7124C33.6515 25.1165 33.3516 24.6931 32.7544 24.5095C31.9766 24.2727 31.224 23.96 30.5075 23.5759C29.9751 23.2871 29.4746 23.3642 28.9949 23.6983C28.5151 24.0323 28.0501 24.3395 27.5985 24.6857C27.2583 24.9464 26.9976 24.9146 26.7186 24.5989C26.4395 24.2832 26.1311 23.987 25.8203 23.6983C25.5547 23.4535 25.5425 23.2162 25.7505 22.9311C26.0957 22.4575 26.4236 21.9717 26.7663 21.4957C27.1224 21.0002 27.1897 20.4838 26.896 19.9381C26.5183 19.2362 26.2117 18.4983 25.9806 17.7355C25.7922 17.1237 25.3589 16.8117 24.7372 16.7162C24.1902 16.6318 23.6493 16.507 23.101 16.436C22.7216 16.3859 22.5539 16.2194 22.5699 15.8315C22.5919 15.3917 22.5919 14.9511 22.5699 14.5112C22.5442 14.0903 22.7473 13.9325 23.1304 13.8774C23.6786 13.7979 24.2196 13.6755 24.7666 13.596C25.3785 13.5054 25.7836 13.1946 25.9672 12.6036C26.2069 11.8266 26.5204 11.0743 26.9034 10.357C27.1897 9.82474 27.1114 9.3255 26.7712 8.84584C26.431 8.36617 26.1299 7.90242 25.7922 7.44723C25.556 7.13275 25.5474 6.87702 25.8472 6.60048C26.1728 6.30436 26.4812 5.98866 26.7822 5.66807C27.027 5.40744 27.2607 5.38419 27.5508 5.59955C28.0207 5.9495 28.5115 6.27254 28.9863 6.61516C29.4819 6.97368 29.9923 7.03364 30.5418 6.73752C31.2438 6.36101 31.9818 6.05563 32.7446 5.82592C33.3565 5.64237 33.6723 5.2141 33.7653 4.58638C33.8473 4.03942 33.9733 3.49857 34.0455 2.95039C34.0945 2.57351 34.2597 2.39975 34.6489 2.41566C35.0882 2.43279 35.53 2.43646 35.9694 2.41566C36.3585 2.39486 36.5348 2.57106 36.5923 2.93693C36.6828 3.5157 36.7954 4.09081 36.8884 4.66959C36.9814 5.24836 37.2739 5.63258 37.8271 5.80389C38.6336 6.05871 39.4162 6.38381 40.1658 6.77545C40.6627 7.03119 41.1449 6.96879 41.5915 6.65309C42.0811 6.30803 42.5853 5.97031 43.0711 5.61301C43.3526 5.40499 43.5876 5.38908 43.8397 5.6595C44.1615 6.00579 44.4993 6.33862 44.8408 6.6641C45.0733 6.88558 45.0794 7.10216 44.8995 7.35423C44.5483 7.84368 44.2093 8.34293 43.8593 8.83238C43.5093 9.32183 43.4444 9.84065 43.7369 10.3888C44.1114 11.0918 44.4167 11.8294 44.6486 12.5914C44.8273 13.1775 45.2299 13.503 45.8443 13.5911C46.3913 13.6706 46.9323 13.7942 47.4805 13.8725C47.8844 13.93 48.0924 14.1013 48.0643 14.5431C48.0361 14.9848 48.0447 15.4314 48.0569 15.8719Z" fill="#232323"/>
<path d="M35.7296 35.2259C35.2853 35.3306 34.836 35.4123 34.3834 35.4707C34.2285 35.4842 34.081 35.5427 33.959 35.6391C33.837 35.7354 33.7459 35.8653 33.6968 36.0127C33.5157 36.4667 33.3786 36.9402 33.1314 37.3661C32.9625 37.6585 33.0188 37.9143 33.1987 38.1847C33.4876 38.6203 33.8106 39.0327 34.0909 39.4707C34.4663 40.0222 34.6581 40.678 34.639 41.3448C34.6199 42.0116 34.3908 42.6554 33.9844 43.1844C33.4472 43.9088 32.7704 44.5047 32.1181 45.119C30.8392 46.3218 29.1039 46.3218 27.8238 45.3405C27.4884 45.0823 27.1384 44.8425 26.7847 44.6063C26.6741 44.523 26.5428 44.4714 26.405 44.4572C26.2672 44.4429 26.1281 44.4666 26.0027 44.5255C25.5365 44.7225 25.0812 44.9465 24.599 45.1006C24.2576 45.2095 24.1022 45.4347 24.052 45.7736C23.9724 46.3059 23.8904 46.8382 23.7619 47.3644C23.4597 48.5941 22.7058 49.3931 21.4881 49.7553C21.3486 49.7957 21.1369 49.7553 21.132 50.0001H17.7053C17.7053 49.7492 17.4752 49.7553 17.3259 49.6929C16.2747 49.2341 15.5587 48.4925 15.2907 47.3533C15.1683 46.8125 15.0766 46.2655 14.986 45.7186C14.9444 45.4592 14.8404 45.2524 14.5772 45.1582C14.0694 44.9771 13.5774 44.7605 13.0891 44.5329C12.7758 44.3873 12.5029 44.4362 12.2226 44.643C11.8163 44.9428 11.4125 45.2475 10.9805 45.513C9.58287 46.3696 8.07513 46.2019 6.91618 45.0492C6.41768 44.5549 5.92123 44.0589 5.42681 43.5613C4.26296 42.3903 4.09652 40.8473 4.98134 39.4573C5.26159 39.0167 5.57856 38.6007 5.88206 38.1761C5.97196 38.0695 6.02726 37.9381 6.0406 37.7993C6.05393 37.6605 6.02468 37.5209 5.95672 37.3991C5.73484 36.9644 5.54386 36.5146 5.3852 36.0531C5.33838 35.8969 5.24565 35.7584 5.11906 35.6557C4.99247 35.5529 4.83788 35.4905 4.67539 35.4768C4.12733 35.4017 3.58392 35.2959 3.04772 35.1599C1.50939 34.7365 0.606217 33.5483 0.600098 31.9564C0.600098 31.2724 0.600098 30.5872 0.600098 29.9019C0.608664 28.3112 1.56324 27.101 3.11625 26.7144C3.64004 26.5847 4.17362 26.5125 4.70721 26.4231C4.9948 26.3754 5.24568 26.2775 5.33869 25.9631C5.49028 25.4977 5.67767 25.0449 5.8992 24.6085C6.0791 24.2255 6.0534 23.8988 5.77682 23.5696C5.48584 23.1961 5.21696 22.806 4.97155 22.4011C4.18341 21.1909 4.21279 19.8033 5.10862 18.6617C5.75912 17.8004 6.53748 17.0436 7.41672 16.4175C8.47165 15.6968 9.61958 15.6491 10.7516 16.2584C11.2827 16.5435 11.76 16.9204 12.2508 17.2728C12.3627 17.3675 12.5 17.4272 12.6456 17.4444C12.7912 17.4616 12.9386 17.4355 13.0695 17.3695C13.5137 17.1664 13.9617 16.9694 14.4255 16.8103C14.5821 16.7614 14.7206 16.6671 14.8236 16.5395C14.9267 16.4119 14.9896 16.2566 15.0043 16.0933C15.0713 15.5768 15.1711 15.0651 15.303 14.5613C15.4608 14.0327 15.9969 13.6754 16.4925 13.7353C17.0371 13.8002 17.4385 14.2517 17.4715 14.8439C17.4817 15.0724 17.4674 15.3013 17.4287 15.5267C17.3186 16.2022 17.184 16.8727 17.0726 17.5506C16.9845 18.1208 16.6712 18.5087 16.1082 18.6629C15.1209 18.9463 14.1669 19.3352 13.2629 19.8229C13.0291 19.9609 12.7587 20.024 12.4881 20.0036C12.2174 19.9833 11.9595 19.8805 11.749 19.7091C11.1444 19.2661 10.5325 18.835 9.91329 18.4157C9.34422 18.029 8.91834 18.0682 8.4178 18.5381C8.0017 18.9284 7.60396 19.3383 7.20378 19.747C6.59187 20.3686 6.57107 20.7443 7.08752 21.4601C7.50606 22.0438 7.9246 22.6262 8.32357 23.2233C8.65767 23.725 8.68214 24.2341 8.38843 24.7455C7.91644 25.567 7.5489 26.4442 7.29434 27.3568C7.09119 28.091 6.62736 28.4226 5.90409 28.5241C5.18082 28.6257 4.45265 28.7468 3.73795 28.912C3.14318 29.0503 2.91677 29.3439 2.90086 29.9509C2.88495 30.5578 2.89229 31.1904 2.90086 31.8096C2.9082 32.5437 3.15174 32.8472 3.87012 32.994C4.5885 33.1409 5.31299 33.2657 6.03749 33.3758C6.67632 33.4713 7.09119 33.7894 7.2613 34.4098C7.51081 35.3072 7.87049 36.1703 8.33213 36.9794C8.71396 37.661 8.65644 38.2777 8.19139 38.8907C7.76796 39.4499 7.37022 40.0275 6.98472 40.6136C6.61757 41.1703 6.64083 41.5215 7.08874 42.0244C7.51215 42.4977 7.96157 42.9471 8.43493 43.3704C8.95383 43.8391 9.30751 43.8599 9.88637 43.483C10.4852 43.0874 11.0727 42.675 11.6487 42.2459C12.2202 41.8189 12.7966 41.7699 13.4293 42.1125C14.2692 42.5844 15.1613 42.9569 16.0874 43.2224C16.6883 43.3851 17.0126 43.7865 17.0983 44.4056C17.1999 45.1496 17.343 45.8862 17.4924 46.6216C17.6331 47.3166 17.9427 47.5626 18.6391 47.5724C19.2106 47.5785 19.7821 47.5724 20.3524 47.5724C21.1809 47.5663 21.4722 47.3374 21.6203 46.525C21.7426 45.852 21.876 45.179 21.9739 44.5011C22.0719 43.8232 22.4378 43.3827 23.1096 43.1857C24.0042 42.9307 24.8665 42.5739 25.6796 42.1223C26.2536 41.7968 26.7811 41.8225 27.3293 42.1945C27.9486 42.6179 28.5532 43.0511 29.1785 43.4781C29.7341 43.8587 30.1294 43.8452 30.6238 43.3741C31.0632 42.9605 31.4805 42.5261 31.9076 42.0966C32.4363 41.5595 32.473 41.1728 32.0545 40.5328C31.6616 39.932 31.2382 39.352 30.8307 38.7659C30.4635 38.2385 30.3766 37.7111 30.7083 37.1201C31.1761 36.2655 31.5448 35.3603 31.8073 34.422C31.9296 33.9986 32.1499 33.6181 32.6076 33.5043C33.537 33.2529 34.4874 33.0867 35.4469 33.0075C36.1591 32.9634 36.6548 33.3501 36.7417 33.9338C36.8286 34.5175 36.4063 35.0595 35.7296 35.2259Z" fill="#232323"/>
<path d="M28.0402 31.0119C28.0585 35.127 24.9146 38.7403 20.805 39.3509C20.3657 39.4158 19.9288 39.4207 19.5298 39.4452C18.3419 39.4442 17.1673 39.195 16.0815 38.7134C14.9956 38.2318 14.0225 37.5285 13.2245 36.6486C12.4266 35.7688 11.8215 34.7318 11.4481 33.6043C11.0746 32.4768 10.9411 31.2837 11.0561 30.1015C11.4539 25.8359 15.2171 22.4073 19.4698 22.4342C19.8071 22.431 20.1329 22.5568 20.3804 22.7858C20.628 23.0149 20.7786 23.33 20.8013 23.6664C20.8123 23.9972 20.6922 24.3189 20.4671 24.5616C20.242 24.8042 19.9303 24.9482 19.5996 24.9623C18.1004 25.032 16.7542 25.4517 15.6124 26.4563C13.7118 28.1168 13.0705 30.739 13.9847 33.1349C14.8512 35.4035 17.1152 36.9281 19.5873 36.8988C22.7154 36.8645 25.2242 34.5017 25.4616 31.3594C25.4995 30.87 25.502 30.3707 25.9169 30.0134C26.3085 29.6794 26.7613 29.5656 27.2361 29.776C27.4818 29.8732 27.6911 30.0444 27.8352 30.2658C27.9792 30.4872 28.0509 30.748 28.0402 31.0119Z" fill="#232323"/>
<path d="M35.3049 9.08692C34.1045 9.0891 32.9317 9.44674 31.9343 10.1147C30.937 10.7827 30.1599 11.7311 29.7011 12.8402C29.2423 13.9493 29.1223 15.1694 29.3563 16.3466C29.5903 17.5238 30.1678 18.6053 31.016 19.4547C31.8641 20.3041 32.9449 20.8832 34.1219 21.1191C35.2989 21.355 36.5194 21.237 37.6294 20.78C38.7394 20.323 39.6891 19.5476 40.3588 18.5515C41.0285 17.5554 41.388 16.3833 41.3922 15.183C41.3944 14.3827 41.2386 13.5898 40.9336 12.8498C40.6286 12.1098 40.1804 11.4373 39.6149 10.8709C39.0493 10.3045 38.3774 9.85531 37.6378 9.54918C36.8982 9.24304 36.1054 9.08595 35.3049 9.08692ZM35.3269 18.6887C34.3966 18.6927 33.5024 18.3287 32.8394 17.6761C32.1764 17.0235 31.7983 16.1352 31.7877 15.2051C31.7644 13.2644 33.3786 11.6223 35.2951 11.6308C35.7586 11.6288 36.218 11.718 36.647 11.8934C37.076 12.0688 37.4663 12.327 37.7955 12.6532C38.1247 12.9794 38.3865 13.3673 38.5658 13.7946C38.7451 14.222 38.8384 14.6805 38.8405 15.1439C38.8426 15.6073 38.7534 16.0666 38.5779 16.4956C38.4025 16.9245 38.1443 17.3147 37.818 17.6439C37.4917 17.9731 37.1038 18.2348 36.6764 18.414C36.249 18.5933 35.7904 18.6867 35.3269 18.6887Z" fill="#232323"/>
</g>
<defs>
<clipPath id="clip0_625_9087">
<rect width="50" height="50" fill="white" transform="translate(0.600098)"/>
</clipPath>
</defs>
</svg>
